<svg id="Layer_1" data-name="Layer 1" xmlns="http://www.w3.org/2000/svg" viewBox="0 0 215.44 180"><defs><style>.cls-1,.cls-3{fill:#8d230f;}.cls-2{fill:#bb7b6f;}.cls-2,.cls-3{fill-rule:evenodd;}</style></defs><path class="cls-1" d="M612.56,451.57h.68v-2.52h1a1,1,0,0,1,1,1v1.56h.68V450a1.59,1.59,0,0,0-.72-1.31,1.57,1.57,0,0,0,.72-1.29v-1.58h-.68v1.58a1,1,0,0,1-1,1h-1v-2.54h-.68Zm0,0" transform="translate(-575 -294)"/><path class="cls-1" d="M623.34,451.57H624v-2.52h1.91v2.52h.68v-5.74h-.68v2.54H624v-2.54h-.68Zm0,0" transform="translate(-575 -294)"/><path class="cls-1" d="M634.11,451.57h.68v-2.52h1.92v2.52h.68v-4.18a1.64,1.64,0,1,0-3.28,0Zm.68-3.2v-1a1,1,0,0,1,1.92,0v1Zm0,0" transform="translate(-575 -294)"/><path class="cls-1" d="M646.1,451.57h.68v-2.33a1.64,1.64,0,0,0,1.3-1.6v-1.81h-.68v1.81a1,1,0,1,1-1.92,0v-1.81h-.68v1.81a1.65,1.65,0,0,0,1.3,1.6Zm0,0" transform="translate(-575 -294)"/><path class="cls-1" d="M655.5,451.57h.68v-2.52h1.92v2.52h.68v-4.18a1.64,1.64,0,0,0-3.28,0Zm.68-3.2v-1a1,1,0,0,1,1.92,0v1Zm0,0" transform="translate(-575 -294)"/><path class="cls-1" d="M666.09,451.57H669v-.68h-2.19v-5.06h-.68Zm0,0" transform="translate(-575 -294)"/><path class="cls-1" d="M681.4,451.57h.68v-2.52H684v2.52h.68v-5.74H684v2.54h-1.92v-2.54h-.68Zm0,0" transform="translate(-575 -294)"/><path class="cls-1" d="M692.18,451.57h.67v-2.52h1.92v2.52h.69v-4.18a1.64,1.64,0,1,0-3.28,0Zm.67-3.2v-1a1,1,0,0,1,1-1,1,1,0,0,1,.95,1v1Zm0,0" transform="translate(-575 -294)"/><path class="cls-1" d="M704.13,451.57h.68v-4.18a1,1,0,0,1,1-1,1,1,0,0,1,1,1v4.18h.68v-4.18a1,1,0,0,1,1.92,0v4.18H710v-4.18a1.65,1.65,0,0,0-1.64-1.64,1.52,1.52,0,0,1-2.6,0,1.65,1.65,0,0,0-1.64,1.64Zm0,0" transform="translate(-575 -294)"/><path class="cls-1" d="M718.5,451.57h2.87v-.68h-2.19v-1.84h2v-.68h-2v-1.86h2.19v-.68H718.5Zm0,0" transform="translate(-575 -294)"/><path class="cls-1" d="M728.21,449.93V450a1.64,1.64,0,1,0,1.63-1.67,1,1,0,1,1,1-1v.08h.68v-.08a1.64,1.64,0,1,0-1.64,1.66,1,1,0,0,1,1,1,1,1,0,0,1-1.91,0v-.09Zm0,0" transform="translate(-575 -294)"/><path class="cls-1" d="M738.82,451.57h.68v-2.52h1.92v2.52h.68v-5.74h-.68v2.54H739.5v-2.54h-.68Zm0,0" transform="translate(-575 -294)"/><path class="cls-1" d="M749.6,451.57h.68v-2.52h1.91v2.52h.68v-4.18a1.64,1.64,0,1,0-3.27,0Zm.68-3.2v-1a1,1,0,1,1,1.91,0v1Zm0,0" transform="translate(-575 -294)"/><rect class="cls-1" x="9.66" y="145.31" width="196.12" height="0.54"/><rect class="cls-1" x="9.66" y="164.09" width="196.12" height="0.53"/><path class="cls-1" d="M584.66,433.27V416h2.28v8.56l8.57-8.56h3.09l-7.23,7,7.56,10.27h-3l-6.14-8.73-2.83,2.75v6Zm0,0" transform="translate(-575 -294)"/><path class="cls-1" d="M600,428.71l2.12-.28a4.76,4.76,0,0,0,1.24,2.6,3.13,3.13,0,0,0,2.14.79,3.39,3.39,0,0,0,2.52-1,3.51,3.51,0,0,0,1-2.57,3.25,3.25,0,0,0-1-2.41,3.3,3.3,0,0,0-2.42-.95,6,6,0,0,0-1.5.24l.24-1.86.34,0a4.4,4.4,0,0,0,2.44-.7,2.42,2.42,0,0,0,1.08-2.18,2.56,2.56,0,0,0-.79-1.93,2.81,2.81,0,0,0-2-.77,2.89,2.89,0,0,0-2.06.78,3.91,3.91,0,0,0-1.06,2.33l-2.12-.38a5.5,5.5,0,0,1,1.77-3.3,5.11,5.11,0,0,1,3.43-1.17,5.69,5.69,0,0,1,2.6.61,4.27,4.27,0,0,1,1.81,1.65,4.18,4.18,0,0,1,.64,2.23,3.71,3.71,0,0,1-.6,2,4.14,4.14,0,0,1-1.78,1.46,4.06,4.06,0,0,1,2.38,1.47,4.49,4.49,0,0,1,.85,2.78,5.12,5.12,0,0,1-1.65,3.83,5.81,5.81,0,0,1-4.17,1.57,5.46,5.46,0,0,1-3.78-1.35,5.22,5.22,0,0,1-1.71-3.51Zm0,0" transform="translate(-575 -294)"/><path class="cls-1" d="M629,426.5v-2h7.31v6.4a13.44,13.44,0,0,1-3.47,2,10.36,10.36,0,0,1-3.67.67,9.79,9.79,0,0,1-4.63-1.09,7.11,7.11,0,0,1-3.13-3.15,9.83,9.83,0,0,1-1.06-4.6,10.71,10.71,0,0,1,1-4.7,7,7,0,0,1,3-3.24,9.48,9.48,0,0,1,4.56-1.06,9,9,0,0,1,3.38.6,5.65,5.65,0,0,1,2.37,1.69,7.43,7.43,0,0,1,1.31,2.83l-2.06.56a6.24,6.24,0,0,0-1-2.07,3.92,3.92,0,0,0-1.64-1.2,5.94,5.94,0,0,0-2.38-.46,7,7,0,0,0-2.71.48,5.07,5.07,0,0,0-1.84,1.25,6,6,0,0,0-1.09,1.71,9,9,0,0,0-.66,3.47,8.39,8.39,0,0,0,.8,3.86,5.07,5.07,0,0,0,2.31,2.31,7.19,7.19,0,0,0,3.23.75,7.67,7.67,0,0,0,2.89-.57,7.42,7.42,0,0,0,2.14-1.21V426.5Zm0,0" transform="translate(-575 -294)"/><path class="cls-1" d="M637.79,433.27,644.42,416h2.46l7.06,17.26h-2.6l-2-5.23h-7.21l-1.9,5.23Zm5-7.09h5.85l-1.8-4.78c-.55-1.45-1-2.64-1.23-3.58a20.84,20.84,0,0,1-.93,3.3Zm0,0" transform="translate(-575 -294)"/><path class="cls-1" d="M655,427.72l2.15-.18a4.79,4.79,0,0,0,.71,2.12,3.92,3.92,0,0,0,1.74,1.34,6.59,6.59,0,0,0,2.65.52,6.26,6.26,0,0,0,2.3-.4,3.1,3.1,0,0,0,1.49-1.06,2.44,2.44,0,0,0,.49-1.48,2.23,2.23,0,0,0-.47-1.42,3.45,3.45,0,0,0-1.55-1,31.41,31.41,0,0,0-3.07-.84,15.59,15.59,0,0,1-3.34-1.08,4.72,4.72,0,0,1-1.84-1.61,4,4,0,0,1-.61-2.15,4.35,4.35,0,0,1,.75-2.44,4.51,4.51,0,0,1,2.16-1.72,8.1,8.1,0,0,1,3.17-.59,8.64,8.64,0,0,1,3.38.62,4.84,4.84,0,0,1,2.26,1.82,5.24,5.24,0,0,1,.85,2.72L666,421a3.52,3.52,0,0,0-1.2-2.47,4.64,4.64,0,0,0-3-.84,4.77,4.77,0,0,0-3,.76,2.25,2.25,0,0,0-.95,1.83,2,2,0,0,0,.67,1.53,9,9,0,0,0,3.44,1.23,23.06,23.06,0,0,1,3.82,1.1,5.24,5.24,0,0,1,2.22,1.76,4.29,4.29,0,0,1,.72,2.46,4.66,4.66,0,0,1-.79,2.59,5.25,5.25,0,0,1-2.26,1.9,8,8,0,0,1-3.33.67,9.8,9.8,0,0,1-3.92-.68,5.43,5.43,0,0,1-2.49-2.06,5.86,5.86,0,0,1-.94-3.1Zm0,0" transform="translate(-575 -294)"/><path class="cls-1" d="M677.76,427.72l2.16-.18a4.79,4.79,0,0,0,.71,2.12,3.87,3.87,0,0,0,1.74,1.34,6.56,6.56,0,0,0,2.65.52,6.33,6.33,0,0,0,2.3-.4,3.15,3.15,0,0,0,1.49-1.06,2.44,2.44,0,0,0,.49-1.48,2.29,2.29,0,0,0-.47-1.42,3.49,3.49,0,0,0-1.56-1,30.57,30.57,0,0,0-3.07-.84,15.65,15.65,0,0,1-3.33-1.08,4.65,4.65,0,0,1-1.84-1.61,3.88,3.88,0,0,1-.61-2.15,4.42,4.42,0,0,1,.74-2.44,4.59,4.59,0,0,1,2.17-1.72,8.1,8.1,0,0,1,3.17-.59,8.71,8.71,0,0,1,3.38.62,4.81,4.81,0,0,1,2.25,1.82,5.15,5.15,0,0,1,.85,2.72l-2.19.16a3.48,3.48,0,0,0-1.19-2.47,4.64,4.64,0,0,0-3-.84,4.8,4.8,0,0,0-3,.76,2.28,2.28,0,0,0-1,1.83,2,2,0,0,0,.67,1.53,9.12,9.12,0,0,0,3.45,1.23,22.85,22.85,0,0,1,3.81,1.1,5.28,5.28,0,0,1,2.23,1.76,4.29,4.29,0,0,1,.72,2.46,4.66,4.66,0,0,1-.79,2.59,5.28,5.28,0,0,1-2.27,1.9,7.88,7.88,0,0,1-3.32.67,9.89,9.89,0,0,1-3.93-.68,5.46,5.46,0,0,1-2.48-2.06,5.78,5.78,0,0,1-1-3.1Zm0,0" transform="translate(-575 -294)"/><path class="cls-1" d="M694.66,433.27V416h12.48v2H697v5.28h9.55v2H697v5.87h10.59v2Zm0,0" transform="translate(-575 -294)"/><path class="cls-1" d="M710.73,433.27V416h7.65a10.17,10.17,0,0,1,3.51.47,3.87,3.87,0,0,1,1.92,1.64,4.87,4.87,0,0,1,.72,2.6,4.37,4.37,0,0,1-1.19,3.1,6,6,0,0,1-3.68,1.6,5.51,5.51,0,0,1,1.38.86,11.74,11.74,0,0,1,1.9,2.29l3,4.7h-2.87l-2.29-3.59c-.66-1-1.21-1.83-1.64-2.38a5.35,5.35,0,0,0-1.16-1.15,3.24,3.24,0,0,0-1.05-.46,6.21,6.21,0,0,0-1.27-.09H713v7.67Zm2.29-9.64h4.91a7.2,7.2,0,0,0,2.44-.33,2.56,2.56,0,0,0,1.34-1,2.78,2.78,0,0,0,.46-1.55,2.58,2.58,0,0,0-.89-2,4.11,4.11,0,0,0-2.8-.79H713Zm0,0" transform="translate(-575 -294)"/><path class="cls-1" d="M732.6,433.27,725.92,416h2.47l4.48,12.54c.36,1,.66,1.94.91,2.82.27-.94.57-1.88.93-2.82L739.37,416h2.33l-6.76,17.26Zm0,0" transform="translate(-575 -294)"/><rect class="cls-1" x="169.14" y="122.01" width="2.28" height="17.26"/><path class="cls-1" d="M762.76,427.22l2.28.57a7.74,7.74,0,0,1-2.58,4.3,7.17,7.17,0,0,1-4.57,1.47,8.24,8.24,0,0,1-4.53-1.13,7.12,7.12,0,0,1-2.66-3.29,11.74,11.74,0,0,1-.92-4.63,10.11,10.11,0,0,1,1-4.7,7,7,0,0,1,2.93-3.05,8.61,8.61,0,0,1,4.18-1,7,7,0,0,1,4.35,1.32,6.79,6.79,0,0,1,2.47,3.7l-2.25.53a5.38,5.38,0,0,0-1.74-2.74,4.67,4.67,0,0,0-2.88-.86,5.55,5.55,0,0,0-3.32,1,5,5,0,0,0-1.88,2.55,11.17,11.17,0,0,0,.1,7.16,4.84,4.84,0,0,0,2,2.46,5.6,5.6,0,0,0,2.93.81A4.91,4.91,0,0,0,761,430.5a5.7,5.7,0,0,0,1.8-3.28Zm0,0" transform="translate(-575 -294)"/><path class="cls-1" d="M767.9,433.27V416h12.48v2h-10.2v5.28h9.55v2h-9.55v5.87h10.6v2Zm0,0" transform="translate(-575 -294)"/><path class="cls-2" d="M741.43,391.68l0-.25s0-.05,0-.07v-.89s0-.05,0-.07l0-.25a.2.2,0,0,1,0-.07l0-.25v-.07l-.06-.24a.22.22,0,0,0,0-.08l-.06-.24a.14.14,0,0,1,0-.06l-.08-.24a.64.64,0,0,0,0-.07l-.09-.24a.14.14,0,0,0,0-.06l-.1-.24,0-.06-.11-.23a.33.33,0,0,1,0-.06l-.12-.22s0,0,0,0l-.29-.5-.57-1-.29-.49-1.14-2-.29-.5-.29-.5-2.87-5-2.86-5-.29-.5-.29-.5-2.58-4.47-.29-.5-.28-.49-.58-1-.28-.5-.29-.5-.29-.5-.29-.49-.28-.5-2.87-5-5.16-8.94-.29-.5L715.35,344l-.29-.5L713.63,341l-.29-.5-.29-.49-2.87-5-1.43-2.49-.29-.5-.57-1-1.43-2.48-1.15-2-.29-.5-.29-.49-.28-.5-.29-.5-2.58-4.47-.29-.5-2.58-4.47-.28-.49-1.15-2-.29-.5-2.87-5-.57-1-.29-.5-.57-1-.29-.5-.29-.5-2.58-4.47-.57-1-.57-1,0-.06-.32-.48a.35.35,0,0,0,0-.08l-.06-.08-.06-.07-.37-.43-.06-.07-.07-.07a.46.46,0,0,0-.07-.07l-.43-.38-.06-.06-.09-.06a.18.18,0,0,0-.07-.05l-.47-.33-.08,0-.09-.06,0,0-.22-.12-.06,0-.23-.11-.06,0-.23-.1-.07,0-.24-.09-.06,0-.24-.08-.07,0-.24-.06-.07,0-.25-.05h-.06l-.25,0h-.07l-.25,0h-.07l-.25,0h-.71l-.26,0h-.06l-.26,0h-.06l-.25.05-.07,0-.24,0-.07,0-.24.07-.07,0-.24.09-.06,0-.24.1-.06,0-.23.1-.06,0-.22.12-.06,0-.22.13-.06,0-.21.15-.06,0-.2.15,0,.05-.2.15,0,0-.19.18,0,0L678,296l0,0-.17.18-.05.05-.16.2,0,.05-.15.2,0,.06-.15.21,0,.06-.13.21,0,0-.86,1.49-2.59,4.47-.57,1-2,3.48-.87,1.49-2,3.48-.29.49-.29.5-.28.49-.29.5-.57,1-2.87,5-.86,1.5-.29.49-.57,1-.87,1.5-1.71,3-1.15,2-2.87,5-1.15,2-.57,1-.29.49-.86,1.49-.58,1-2.58,4.47-.28.5-2,3.47-.29.5-.29.5-.28.49-.29.5-2.58,4.47-2.87,5-.86,1.49-.29.5-2.58,4.47-.28.5-1.44,2.48-.57,1-.29.49-.29.5-1.43,2.48-2.87,5-.29.5-2.87,5-1.43,2.47,0,.07-.26.51s0,.05,0,.08l0,.1,0,.08-.19.54,0,.09,0,.1s0,.06,0,.09l-.12.56s0,.06,0,.09v.19l0,.57v.56l0,.25v.07l0,.26V392l.05.25s0,0,0,.07l.06.24s0,.05,0,.07l.07.24a.64.64,0,0,0,0,.07l.08.24a.14.14,0,0,1,0,.06l.09.24,0,.06.1.23,0,.07.12.22,0,.06.12.22,0,.06.13.21a.21.21,0,0,1,0,.06l.15.21s0,0,0,.05l.15.2.05.06.17.19,0,.05.17.18,0,.05.18.17,0,0,.2.16,0,.05.2.15a.1.1,0,0,0,0,0l.21.15.06,0,.21.13.06,0,.22.12.06,0,.22.12.07,0,.23.1.06,0,.24.09.06,0,.24.08.07,0,.24.07H629l.24.06.07,0,.25,0h.07l.25,0h.07l.25,0H735l.57,0h.28l.57-.11.08,0,.1,0,.09,0,.54-.18.09,0,.1,0,.08,0,.52-.25.07,0,.09-.05.05,0,.21-.13.06,0,.21-.14.06,0,.19-.16.06,0,.19-.16.06-.05.18-.17,0,0,.18-.18,0-.05.17-.19s0,0,.05-.05l.15-.2,0-.05.14-.21,0-.06.14-.21,0-.05.13-.22,0-.06.12-.23,0-.06.1-.23s0,0,0-.06l.1-.23a.64.64,0,0,1,0-.07l.08-.24a.14.14,0,0,0,0-.06l.08-.25s0,0,0-.06l.06-.25s0,0,0-.06l0-.25,0-.07,0-.25a.17.17,0,0,0,0-.07Zm-2.72-.84v.56l0,.18,0,.19,0,.17-.05.18-.06.18-.07.17-.08.17-.09.17-.09.16-.1.15-.11.15-.12.15-.12.14-.13.13-.14.13-.14.11-.15.12-.15.1-.17.1,0,0-.44.21-.46.16h0l-.47.09h0l-.49,0H630.15l-.19,0-.18,0-.19,0-.18-.05-.17,0-.18-.07-.17-.08-.16-.08-.16-.09-.16-.1-.15-.11-.15-.11-.14-.13-.13-.12-.13-.14-.12-.14-.12-.15-.11-.15-.09-.16-.1-.16-.08-.16-.07-.17-.07-.18-.06-.17,0-.18,0-.19,0-.18,0-.18v-.42l0-.48h0l.1-.48h0l.16-.45h0l.22-.44,1.41-2.45,2.87-5,.29-.49,2.87-5,1.43-2.48.29-.5.28-.5.58-1,1.43-2.49.29-.49,2.58-4.48.29-.49.86-1.49,2.87-5,2.58-4.47.29-.5.28-.49.29-.5.29-.5,2-3.48.29-.49,2.58-4.47.58-1,.86-1.49.28-.49.58-1,1.15-2,2.86-5,1.15-2,1.72-3,.86-1.5.58-1,.28-.5L666,322l2.87-5,.29-.5.29-.5.57-1,.57-1,2-3.49.86-1.48,2-3.48.57-1,2.58-4.47.86-1.48.1-.17.11-.15.11-.15.12-.14.13-.14.13-.13.14-.12.14-.12.15-.11.16-.1.16-.1.16-.08.17-.08.17-.07.18-.06.18-.05.18-.05.18,0,.19,0H683l.18,0,.19,0,.18,0,.18,0,.18.06.17.06.17.07.17.09.17.09,0,0,.4.27h0l.36.32h0l.32.37h0l.27.41.55,1,.57,1,2.59,4.47.28.5.87,1.49.56,1,.29.5,2.87,5,.29.5,1.14,2,.29.5,2.59,4.47.28.5,2.58,4.47.29.5.29.49.28.5.29.5,1.15,2,1.43,2.48.58,1,.28.5,1.44,2.48,2.87,5,.28.5.29.5,1.44,2.48.28.5,2.58,4.47.29.5,5.16,8.94,2.87,5,.29.5.29.49.28.5.29.5.29.49.57,1,.29.49.28.5,2.59,4.47.28.5.29.49,5.74,9.94.28.5.29.5,1.15,2,.28.5.58,1,.27.49.1.17.08.17.07.17.07.18.06.18,0,.17,0,.19,0,.18,0,.19Zm0,0" transform="translate(-575 -294)"/><path class="cls-3" d="M682.72,300.55,630.52,391h104.4ZM667.4,364.63c11.1-7.67,13.3-25.08,27.8-25.08,4.74,0,8.71,2.43,10.35,5.57l-6.35,2.65a5.46,5.46,0,0,0-4.82-3.25c-8.45,0-14,13.94-23.65,20.4h.14L674.65,381h-5.46l-3.28-14.05c-6.51,9.57-16.41,19.4-29.68,19.4l3.11-6c18.38-1.45,22.12-12.1,29.44-31.12h6.28a87.38,87.38,0,0,1-7.66,15.4Zm26.31,6c0,5.53-5.2,8.82-10.47,8.82a11.31,11.31,0,0,1-7.17-2.39l2.54-4.41a5,5,0,0,0,4.48,2.84,4.66,4.66,0,0,0,4.3-2.8,5.09,5.09,0,0,0,.41-1.95c0-2.05-1.53-4.07-5.34-4.07l1.19-2.24c3.37.26,5.39-2.32,5.39-4.11a1.6,1.6,0,0,0-1.76-1.72,3.3,3.3,0,0,0-2.66,1.64L682.35,357a9.06,9.06,0,0,1,5.6-1.68c3.37,0,6.65,1.46,6.65,4.59a4.87,4.87,0,0,1-.11,1c-.45,2-2.35,4.07-6.58,4.45,4.49.11,5.8,2.58,5.8,5.23Zm0,0" transform="translate(-575 -294)"/><path class="cls-1" d="M575,470.31V349.19a3.69,3.69,0,0,1,3.7-3.7h68l-.31.53H578.7a3.18,3.18,0,0,0-3.17,3.17V470.31a3.18,3.18,0,0,0,3.17,3.16h208a3.16,3.16,0,0,0,3.16-3.16V349.19a3.16,3.16,0,0,0-3.16-3.17H719l-.31-.53h68a3.7,3.7,0,0,1,3.7,3.7V470.31a3.6,3.6,0,0,1-1.09,2.61,3.56,3.56,0,0,1-2.61,1.08h-208a3.69,3.69,0,0,1-3.7-3.69Zm0,0" transform="translate(-575 -294)"/></svg>